<?xml version="1.0" standalone="no"?>
<!DOCTYPE svg PUBLIC "-//W3C//DTD SVG 20010904//EN"
 "http://www.w3.org/TR/2001/REC-SVG-20010904/DTD/svg10.dtd">
<svg version="1.0" xmlns="http://www.w3.org/2000/svg"
 width="1024.000000pt" height="1024.000000pt" viewBox="0 0 1024.000000 1024.000000"
 preserveAspectRatio="xMidYMid meet">

<g transform="translate(0.000000,1024.000000) scale(0.100000,-0.100000)"
fill="#000000" stroke="none">
<path d="M4754 7729 c-331 -48 -714 -253 -884 -473 -29 -37 -47 -49 -100 -67
-168 -57 -362 -179 -473 -298 -134 -145 -247 -348 -276 -496 l-16 -82 -55 -21
c-98 -38 -238 -138 -340 -241 -178 -180 -283 -374 -337 -623 -24 -115 -25
-398 0 -516 41 -194 122 -357 258 -523 l38 -46 -11 -98 c-25 -231 29 -474 154
-687 122 -211 289 -369 503 -476 55 -27 70 -43 157 -159 96 -128 189 -228 283
-301 386 -303 969 -388 1374 -201 l84 39 113 -40 c185 -65 252 -75 469 -74
154 1 209 5 292 23 330 70 607 248 815 525 32 42 48 53 104 72 153 54 285 137
420 267 189 180 328 421 375 649 23 114 33 302 21 393 l-9 70 53 88 c68 114
110 215 144 352 77 303 63 598 -40 890 -135 379 -442 706 -797 849 -64 25 -73
32 -79 60 -10 49 -76 184 -130 266 -61 94 -236 270 -330 332 -149 99 -298 161
-484 202 -94 21 -112 28 -172 73 -180 137 -410 231 -653 268 -109 16 -369 18
-471 4z m481 -328 c114 -24 247 -72 321 -117 202 -122 344 -308 363 -475 15
-133 69 -199 166 -199 62 0 104 24 142 81 24 36 28 53 28 108 -1 36 -9 90 -19
119 -10 29 -16 55 -14 57 9 9 125 -54 178 -96 118 -93 247 -259 265 -341 6
-26 10 -29 34 -24 159 35 275 0 300 -91 17 -62 -14 -113 -85 -138 l-37 -12 98
-47 c128 -60 202 -115 320 -233 111 -112 190 -225 245 -351 157 -354 122 -807
-84 -1095 -70 -100 -182 -199 -276 -246 -45 -22 -95 -41 -111 -41 -132 0 -225
-83 -199 -179 23 -88 91 -130 206 -131 83 0 201 28 274 65 l51 26 -7 -48 c-15
-106 -79 -262 -147 -363 -49 -72 -186 -208 -262 -260 -94 -63 -154 -93 -255
-124 -47 -14 -90 -29 -96 -33 -6 -5 -28 -33 -47 -65 -189 -296 -538 -488 -887
-488 -160 0 -340 43 -483 115 -49 25 -94 45 -102 45 -7 0 -39 -14 -71 -31
-164 -88 -264 -122 -405 -138 -190 -21 -393 13 -582 98 -208 94 -448 334 -517
518 -12 32 -26 64 -33 71 -24 29 -87 52 -143 52 -51 0 -62 4 -122 47 -232 165
-370 428 -372 705 l0 77 44 20 c53 23 77 56 83 115 8 65 -24 115 -113 176
-101 70 -175 155 -229 264 -64 130 -78 201 -78 381 0 180 21 281 87 419 104
221 308 388 536 441 41 10 87 25 102 33 53 31 71 105 46 197 -33 124 80 349
243 483 102 84 258 156 380 176 29 5 43 16 73 61 47 68 163 179 246 235 115
78 286 147 445 180 128 26 377 27 500 1z"/>
<path d="M3805 5616 c-62 -29 -119 -85 -153 -151 -23 -43 -27 -63 -27 -135 0
-73 4 -93 28 -142 34 -70 110 -140 174 -162 76 -26 167 -21 238 13 119 57 180
153 179 281 0 130 -67 239 -179 292 -80 38 -185 40 -260 4z"/>
<path d="M5753 5624 c-64 -23 -128 -86 -165 -161 -28 -57 -32 -77 -32 -137 1
-126 65 -230 176 -286 50 -25 73 -30 129 -30 133 0 234 61 290 175 29 59 31
70 27 147 -4 97 -27 154 -88 217 -62 64 -111 84 -210 88 -58 2 -98 -2 -127
-13z"/>
<path d="M4593 5228 c-98 -70 -82 -206 36 -292 81 -60 105 -66 255 -66 168 0
223 17 302 94 87 85 96 176 24 248 -34 34 -43 38 -89 38 -48 0 -56 -4 -100
-45 l-48 -45 -85 0 c-81 0 -85 1 -105 28 -45 61 -134 79 -190 40z"/>
</g>
</svg>
